<?xml version="1.0" encoding="UTF-8"?>
<svg id="Layer_1" data-name="Layer 1" xmlns="http://www.w3.org/2000/svg" xmlns:xlink="http://www.w3.org/1999/xlink" viewBox="0 0 1024 1024">
  <defs>
    <style>
      .cls-1 {
        clip-path: url(#clippath);
      }

      .cls-2 {
        fill: none;
      }

      .cls-2, .cls-3, .cls-4 {
        stroke-width: 0px;
      }

      .cls-5 {
        clip-path: url(#clippath-1);
      }

      .cls-3 {
        fill: #000;
      }

      .cls-4 {
        fill: #fff;
      }
    </style>
    <clipPath id="clippath">
      <rect class="cls-2" x="0" y="0" width="1024" height="1024"/>
    </clipPath>
    <clipPath id="clippath-1">
      <rect class="cls-2" x="0" y="0" width="1024" height="1024.01"/>
    </clipPath>
  </defs>
  <g class="cls-1">
    <g class="cls-5">
      <g>
        <path class="cls-4" d="M57.13,126.66v193.62h266.32V56.78H126.98c-18.53,0-36.29,7.36-49.39,20.47-13.1,13.1-20.46,30.88-20.46,49.41Z"/>
        <path class="cls-4" d="M701.26,966.85h195.78c4.51-.06,9-.52,13.42-1.38,13.35-2.84,25.6-9.47,35.27-19.1,13.07-13.12,20.43-30.88,20.47-49.4v-196.37h-264.94v266.24Z"/>
        <path class="cls-4" d="M647.41,700.61h-269.94v266.24h269.94v-266.24Z"/>
        <path class="cls-4" d="M966.72,374.35h-265.46v270.03h265.46v-270.03Z"/>
        <path class="cls-4" d="M647.41,56.78h-269.94v263.49h269.94V56.78Z"/>
        <path class="cls-4" d="M323.45,374.35H57.13v270.03h266.32v-270.03Z"/>
        <path class="cls-3" d="M1000.26,53.18c-5.06-6.84-10.83-13.12-17.2-18.76C961.52,14.02,933.51,1.84,903.92,0H119.4c-32.28,1.85-62.64,15.98-84.84,39.5C12.36,63.02,0,94.15,0,126.5v770.67c.05,33.63,13.42,65.86,37.19,89.64,23.77,23.78,55.99,37.15,89.61,37.2h770.41c33.63-.09,65.86-13.51,89.62-37.31,23.76-23.81,37.13-56.06,37.18-89.7V126.67c-.06-26.37-8.36-52.07-23.74-73.49ZM323.44,644.18H57.12v-269.86h266.32v269.86ZM323.44,320.28H57.12V126.67c0-18.53,7.36-36.3,20.46-49.41,13.1-13.1,30.87-20.47,49.39-20.47h196.47v263.49ZM647.4,966.87h-270.28v-266.24h270.28v266.24ZM647.4,320.28h-270.28V56.79h270.28v263.49ZM966.88,897c-.04,18.52-7.4,36.27-20.48,49.39-9.86,9.75-22.36,16.39-35.96,19.1-4.65.9-9.37,1.36-14.11,1.38h-195.09v-266.24h265.63v196.37ZM966.88,644.18h-265.63v-269.86h265.63v269.86Z"/>
      </g>
    </g>
  </g>
</svg>